<svg width="52" height="51" viewBox="0 0 52 51" fill="none" xmlns="http://www.w3.org/2000/svg">
<path d="M25.8239 0C11.5771 0 0 11.4444 0 25.5C0 39.5556 11.5898 51 25.8239 51C40.058 51 51.6478 39.5556 51.6478 25.5C51.6478 11.4444 40.058 0 25.8239 0ZM25.8239 47.7266C13.4117 47.7266 3.31497 37.7565 3.31497 25.5C3.31497 13.2435 13.4117 3.2734 25.8239 3.2734C38.2361 3.2734 48.3328 13.2435 48.3328 25.5C48.3328 37.7565 38.2361 47.7266 25.8239 47.7266Z" fill="white"/>
<path d="M30.6094 17.3906C30.8008 17.3906 31.097 17.4134 31.498 17.459C31.9082 17.4954 32.373 17.5957 32.8926 17.7598C33.4121 17.9238 33.9408 18.1882 34.4785 18.5527C35.0163 18.9173 35.513 19.4277 35.9688 20.084C35.9232 20.1113 35.75 20.2344 35.4492 20.4531C35.1576 20.6719 34.8249 20.9909 34.4512 21.4102C34.0775 21.8203 33.7493 22.3444 33.4668 22.9824C33.1934 23.6113 33.0566 24.3633 33.0566 25.2383C33.0566 26.2409 33.2298 27.0885 33.5762 27.7812C33.9316 28.474 34.3418 29.0345 34.8066 29.4629C35.2806 29.8913 35.6999 30.2057 36.0645 30.4062C36.4382 30.5977 36.6387 30.6979 36.666 30.707C36.6569 30.7435 36.5885 30.9486 36.4609 31.3223C36.3333 31.6868 36.1328 32.1608 35.8594 32.7441C35.5951 33.3184 35.2487 33.9199 34.8203 34.5488C34.4284 35.1048 34.0228 35.638 33.6035 36.1484C33.1934 36.6589 32.7422 37.0736 32.25 37.3926C31.7669 37.7207 31.2201 37.8848 30.6094 37.8848C30.1445 37.8848 29.748 37.8301 29.4199 37.7207C29.0918 37.6113 28.7773 37.4837 28.4766 37.3379C28.1849 37.2012 27.8613 37.0781 27.5059 36.9688C27.1504 36.8594 26.7083 36.8047 26.1797 36.8047C25.487 36.8047 24.9082 36.8958 24.4434 37.0781C23.9876 37.2695 23.5547 37.4564 23.1445 37.6387C22.7344 37.821 22.2513 37.9121 21.6953 37.9121C20.8477 37.9121 20.1003 37.5749 19.4531 36.9004C18.8151 36.2259 18.1589 35.4193 17.4844 34.4805C16.9648 33.7331 16.4909 32.8717 16.0625 31.8965C15.6341 30.9212 15.2923 29.8867 15.0371 28.793C14.7819 27.6992 14.6543 26.6055 14.6543 25.5117C14.6543 23.7617 14.987 22.2897 15.6523 21.0957C16.3177 19.9017 17.1699 18.9993 18.209 18.3887C19.248 17.778 20.3281 17.4727 21.4492 17.4727C22.0417 17.4727 22.5977 17.5684 23.1172 17.7598C23.6458 17.9512 24.138 18.1471 24.5938 18.3477C25.0495 18.5391 25.4642 18.6348 25.8379 18.6348C26.1934 18.6348 26.6126 18.5345 27.0957 18.334C27.5788 18.1243 28.112 17.9147 28.6953 17.7051C29.2878 17.4954 29.9258 17.3906 30.6094 17.3906ZM29.6523 15.1758C29.1966 15.7318 28.6224 16.1921 27.9297 16.5566C27.2461 16.9212 26.599 17.1035 25.9883 17.1035C25.8607 17.1035 25.7376 17.0898 25.6191 17.0625C25.61 17.026 25.5964 16.9622 25.5781 16.8711C25.569 16.7799 25.5645 16.6797 25.5645 16.5703C25.5645 15.8776 25.7148 15.2031 26.0156 14.5469C26.3164 13.8906 26.6628 13.3438 27.0547 12.9062C27.5378 12.332 28.1484 11.8535 28.8867 11.4707C29.6341 11.0879 30.3496 10.8828 31.0332 10.8555C31.0605 11.0104 31.0742 11.1882 31.0742 11.3887C31.0742 12.0905 30.9421 12.7741 30.6777 13.4395C30.4134 14.0957 30.0716 14.6745 29.6523 15.1758Z" fill="white"/>
</svg>
