<svg width="553" height="509" viewBox="0 0 553 509" fill="none" xmlns="http://www.w3.org/2000/svg">
<path opacity="0.4" d="M418.065 509C422.051 509 425.345 507.528 427.945 504.585C430.544 501.815 431.844 497.92 431.844 492.899V419.665H453.944C474.396 419.665 492.076 415.683 506.982 407.719C521.714 399.582 533.067 388.156 541.04 373.44C549.013 358.724 553 341.238 553 320.982V98.9434C553 78.5141 549.013 60.9415 541.04 46.2255C533.067 31.5095 521.714 20.1696 506.982 12.2056C492.076 4.06854 474.396 0 453.944 0H99.0564C78.6038 0 61.0111 4.06854 46.2783 12.2056C31.3722 20.1696 19.9326 31.5961 11.9596 46.4852C3.98654 61.2012 1.96844e-05 78.6872 1.96844e-05 98.9434V320.982C1.96844e-05 341.065 3.98654 358.551 11.9596 373.44C19.9326 388.156 31.3722 399.582 46.2783 407.719C61.0111 415.683 78.6038 419.665 99.0564 419.665H307.309L400.906 500.17C404.025 502.767 406.885 504.845 409.485 506.403C411.912 508.134 414.772 509 418.065 509ZM413.645 487.445L324.468 408.239C321.175 405.122 318.228 403.045 315.629 402.006C312.855 400.967 309.389 400.448 305.229 400.448H99.5764C75.1373 400.448 55.7247 393.263 41.3385 378.893C26.7791 364.524 19.4993 344.96 19.4993 320.203V99.4628C19.4993 74.7053 26.7791 55.2282 41.3385 41.0316C55.7247 26.6619 75.1373 19.477 99.5764 19.477H453.684C478.469 19.477 497.969 26.6619 512.181 41.0316C526.394 55.2282 533.501 74.7053 533.501 99.4628V320.203C533.501 344.96 526.394 364.524 512.181 378.893C497.969 393.263 478.469 400.448 453.684 400.448H423.005C419.538 400.448 417.112 401.227 415.725 402.785C414.338 404.17 413.645 406.421 413.645 409.537V487.445ZM445.364 199.185C458.363 199.185 464.863 192.52 464.863 179.189V113.486C464.863 100.502 458.363 94.0092 445.364 94.0092H314.329C300.982 94.0092 294.309 100.502 294.309 113.486V179.189C294.309 192.52 300.982 199.185 314.329 199.185H445.364ZM411.565 325.916C424.911 325.916 431.584 319.337 431.584 306.179V257.097C431.584 244.112 424.911 237.62 411.565 237.62H297.429C284.43 237.62 277.93 244.112 277.93 257.097V306.179C277.93 319.337 284.43 325.916 297.429 325.916H411.565ZM217.092 307.997C230.092 307.997 236.591 301.505 236.591 288.52V133.223C236.591 120.065 230.092 113.486 217.092 113.486H121.156C108.156 113.486 101.656 120.065 101.656 133.223V288.52C101.656 301.505 108.156 307.997 121.156 307.997H217.092Z" fill="#CC7332"/>
</svg>
