<svg width="60" height="34" viewBox="0 0 60 34" fill="none" xmlns="http://www.w3.org/2000/svg">
<path d="M29.7705 33.5303C28.859 33.5303 28.0501 33.1885 27.3438 32.5049L0.957031 5.50293C0.638021 5.18392 0.398763 4.84212 0.239258 4.47754C0.0797526 4.09017 0 3.66862 0 3.21289C0 2.59766 0.136719 2.05078 0.410156 1.57227C0.70638 1.07096 1.09375 0.683594 1.57227 0.410156C2.05078 0.136719 2.58626 0 3.17871 0C4.06738 0 4.83073 0.307617 5.46875 0.922852L31.5479 27.583H27.9248L54.0039 0.922852C54.6647 0.307617 55.4281 0 56.2939 0C56.8864 0 57.4219 0.136719 57.9004 0.410156C58.4017 0.683594 58.7891 1.07096 59.0625 1.57227C59.3359 2.05078 59.4727 2.59766 59.4727 3.21289C59.4727 4.07878 59.165 4.83073 58.5498 5.46875L32.1289 32.5049C31.8099 32.8467 31.4453 33.1087 31.0352 33.291C30.625 33.4505 30.2035 33.5303 29.7705 33.5303Z" fill="white"/>
</svg>
