<svg width="153" height="157" viewBox="0 0 153 157" fill="none" xmlns="http://www.w3.org/2000/svg">
<path d="M0 79.2055C0 30.9485 31.9533 0 78.0037 0C121.329 0 153 27.3739 153 70.3631C153 98.3014 139.655 118.902 118.321 118.902C106.762 118.902 97.9275 113.258 96.6118 103.569H95.8599C91.7248 113.258 82.8907 118.902 71.895 118.902C52.629 118.902 39.2838 102.629 39.2838 79.0174C39.2838 55.6884 52.723 39.6968 71.519 39.6968C81.9509 39.6968 90.879 44.5884 94.7322 52.9605H95.484V47.3164C95.484 42.6129 98.2095 39.6968 102.627 39.6968C107.044 39.6968 109.675 42.6129 109.675 47.3164V96.7022C109.675 103.099 113.622 106.673 120.765 106.673C131.948 106.673 139.749 91.9047 139.749 71.0216C139.749 32.2654 111.367 11.8526 77.8157 11.8526C38.7199 11.8526 13.2512 39.6968 13.2512 79.7699C13.2512 121.63 40.9754 145.053 81.5749 145.053C91.8188 145.053 99.0553 143.548 108.829 141.102C110.239 140.726 111.367 140.632 112.119 140.632C115.314 140.632 117.287 142.419 117.287 145.336C117.287 148.346 115.314 150.886 109.299 152.861C101.687 155.307 90.3151 157 78.5676 157C33.269 157 0 128.403 0 79.2055ZM74.2445 105.639C87.0258 105.639 95.2961 95.1971 95.2961 78.8292C95.2961 62.8376 87.1198 52.6783 74.3385 52.6783C61.7451 52.6783 54.3206 62.4614 54.3206 78.9233C54.3206 95.5734 61.7451 105.639 74.2445 105.639Z" fill="#CC7332"/>
</svg>
