<svg width="112" height="112" viewBox="0 0 112 112" fill="none" xmlns="http://www.w3.org/2000/svg">
<mask id="mask0_324_60" style="mask-type:luminance" maskUnits="userSpaceOnUse" x="0" y="0" width="112" height="112">
<path d="M93 0H19C8.50659 0 0 8.50659 0 19V93C0 103.493 8.50659 112 19 112H93C103.493 112 112 103.493 112 93V19C112 8.50659 103.493 0 93 0Z" fill="white"/>
</mask>
<g mask="url(#mask0_324_60)">
<g filter="url(#filter0_d_324_60)">
<path d="M112 19C112 8.50659 103.493 0 93 0H19C8.50659 0 0 8.50659 0 19V93C0 103.493 8.50659 112 19 112H93C103.493 112 112 103.493 112 93V19Z" fill="url(#paint0_linear_324_60)"/>
<path d="M39.2073 86.841C30.6735 86.841 23.5034 79.8846 15.9445 72.5517C14.6202 71.2658 13.2482 69.9373 11.8679 68.641C11.7237 68.5058 11.6077 68.3435 11.5262 68.1634C11.4448 67.9833 11.3997 67.789 11.3933 67.5913C11.387 67.3938 11.4197 67.1969 11.4894 67.0121C11.5592 66.8271 11.6648 66.6577 11.8 66.5135C11.9353 66.3694 12.0975 66.2533 12.2776 66.1719C12.4577 66.0905 12.6521 66.0453 12.8496 66.039C13.0472 66.0326 13.244 66.0653 13.429 66.1351C13.6139 66.2049 13.7833 66.3104 13.9274 66.4456C15.3274 67.7586 16.7067 69.0973 18.0404 70.3864C26.0069 78.1144 32.8866 84.7877 40.9194 83.7112C46.7372 82.9293 52.2128 80.6386 57.201 76.901C61.4144 73.7412 65.2992 69.5381 68.7493 64.4099C74.9644 55.1709 78.2103 45.2486 79.1488 40.8422C79.9784 36.9274 78.8376 33.3029 76.1497 31.3824C73.6069 29.5624 70.1951 29.6848 66.7883 31.7194C61.0567 35.1416 57.1159 40.8453 53.9291 59.8376C53.6647 61.4149 52.7044 62.0154 52.1547 62.2229C50.3917 62.9104 47.933 61.8754 43.929 58.7632C43.7729 58.642 43.6422 58.4912 43.5444 58.3194C43.4466 58.1477 43.3836 57.9583 43.359 57.7621C43.3094 57.3661 43.4191 56.9665 43.664 56.6513C43.7853 56.4952 43.9361 56.3646 44.1078 56.2669C44.2796 56.1691 44.469 56.1061 44.6651 56.0815C45.0611 56.0318 45.4607 56.1414 45.7759 56.3864C48.9882 58.8836 50.3887 59.3307 50.8739 59.4026C50.9132 59.4084 50.954 59.3781 50.96 59.3389C53.9384 41.5619 57.6759 33.6576 65.24 29.1403C69.6557 26.5031 74.3867 26.4295 77.8919 28.9402C81.564 31.568 83.1704 36.3706 82.0836 41.4738C81.1047 46.0928 77.7135 56.4746 71.2445 66.0951C67.6066 71.5032 63.4885 75.9469 59.0074 79.3142C53.6076 83.3587 47.6592 85.8475 41.326 86.6989C40.6238 86.7939 39.9159 86.8413 39.2073 86.841Z" fill="white"/>
<path d="M21.5217 37.4376C21.1784 37.4375 20.8468 37.3135 20.5876 37.0884C20.3284 36.8632 20.1593 36.5521 20.1112 36.2122C20.0632 35.8724 20.1394 35.5265 20.326 35.2384C20.5125 34.9502 20.7968 34.7391 21.1265 34.6439L25.171 33.4741C25.5305 33.3801 25.9125 33.4303 26.2354 33.6139C26.5584 33.7974 26.797 34.1 26.9002 34.4568C27.0034 34.8138 26.9631 35.1969 26.7879 35.5246C26.6127 35.8521 26.3164 36.0985 25.9622 36.2108L21.9179 37.3806C21.7891 37.4183 21.6558 37.4375 21.5217 37.4376Z" fill="white"/>
<path d="M40.5817 47.9864C40.2537 47.9857 39.936 47.8719 39.6822 47.6641C39.4284 47.4562 39.2543 47.1672 39.189 46.8456L38.433 43.1953C38.3875 43.0092 38.3799 42.8157 38.4108 42.6266C38.4417 42.4375 38.5105 42.2565 38.613 42.0946C38.7154 41.9327 38.8495 41.793 39.0072 41.6841C39.1649 41.5753 39.3429 41.4992 39.5305 41.4607C39.7183 41.4222 39.9119 41.4219 40.0997 41.46C40.2875 41.4979 40.4658 41.5735 40.6237 41.682C40.7817 41.7905 40.9161 41.9297 41.019 42.0914C41.122 42.2531 41.1912 42.4337 41.2226 42.6228L41.9786 46.2742C42.0165 46.4574 42.018 46.6462 41.983 46.83C41.9478 47.0137 41.8769 47.1887 41.774 47.345C41.6713 47.5014 41.5388 47.6359 41.384 47.7409C41.2293 47.8461 41.0553 47.9196 40.8721 47.9574C40.7767 47.9772 40.6793 47.9869 40.5817 47.9864Z" fill="white"/>
<path d="M29.2815 46.2006C29.036 46.2001 28.7949 46.1362 28.5813 46.0151C28.3678 45.894 28.189 45.7199 28.0626 45.5095C27.936 45.2991 27.866 45.0597 27.8592 44.8143C27.8524 44.5689 27.9089 44.3259 28.0235 44.1088L29.8747 40.615C29.9593 40.4446 30.0772 40.2929 30.2213 40.1688C30.3655 40.0448 30.533 39.9507 30.7141 39.8924C30.8952 39.8341 31.086 39.8126 31.2756 39.8292C31.4651 39.8459 31.6493 39.9003 31.8175 39.9893C31.9857 40.0782 32.1343 40.2 32.2546 40.3474C32.3749 40.4947 32.4645 40.6646 32.5181 40.8471C32.5717 41.0297 32.5882 41.2211 32.5667 41.4101C32.5451 41.5991 32.4859 41.7818 32.3926 41.9477L30.5426 45.4425C30.4213 45.6715 30.2397 45.8633 30.0175 45.9968C29.7952 46.1305 29.5408 46.2009 29.2815 46.2006Z" fill="white"/>
<path d="M39.0582 39.8291C37.2485 39.8291 35.7542 39.5884 34.5502 39.1083C32.0872 38.1252 29.3194 35.5212 26.088 31.1481C25.8462 30.8208 25.7444 30.4111 25.8047 30.0088C25.8651 29.6066 26.0829 29.2446 26.41 29.0029C26.7372 28.7612 27.147 28.6593 27.5493 28.7196C27.9515 28.78 28.3134 28.9978 28.5551 29.3249C32.0944 34.1161 34.3874 35.7401 35.6868 36.2585C36.9862 36.7771 39.6887 37.1494 45.2701 36.0169C45.4675 35.9769 45.6709 35.9761 45.8687 36.0147C46.0664 36.0533 46.2547 36.1304 46.4227 36.2418C46.5906 36.353 46.7349 36.4964 46.8475 36.6635C46.96 36.8307 47.0386 37.0182 47.0786 37.2158C47.1186 37.4132 47.1194 37.6166 47.0809 37.8144C47.0423 38.0121 46.9652 38.2004 46.8538 38.3684C46.7425 38.5363 46.5992 38.6806 46.4321 38.7932C46.265 38.9057 46.0773 38.9843 45.8799 39.0243C43.2354 39.5604 40.9715 39.8291 39.0582 39.8291Z" fill="white"/>
<path d="M50.232 25.2212C50.232 25.2201 50.2311 25.2191 50.23 25.2191C49.9355 25.2191 49.6462 25.1419 49.3909 24.9951C43.5016 21.6195 38.9719 19.7414 35.9303 19.4137C32.9964 19.1027 29.3969 20.0494 25.228 22.2417C24.8302 22.4511 24.3657 22.4938 23.9365 22.3606C23.5072 22.2274 23.1486 21.9291 22.9393 21.5313C22.7299 21.1336 22.6873 20.6691 22.8205 20.2399C22.9537 19.8106 23.252 19.4519 23.6496 19.2427C28.42 16.7299 32.677 15.6545 36.2943 16.0433C39.8533 16.4281 44.689 18.3932 51.0762 22.0582C51.4005 22.2439 51.6543 22.5316 51.7982 22.8765C51.942 23.2215 51.9677 23.6043 51.8715 23.9654C51.7751 24.3265 51.5621 24.6457 51.2656 24.8732C50.9697 25.1001 50.6071 25.2233 50.2341 25.2233C50.233 25.2233 50.232 25.2223 50.232 25.2212Z" fill="white"/>
<path d="M92.1373 45.1306C91.5486 45.1363 90.9803 44.916 90.5493 44.5152C90.1182 44.1143 89.8573 43.5634 89.8204 42.9759C89.7834 42.3885 89.9732 41.8092 90.3506 41.3575C90.728 40.9058 91.2642 40.6161 91.849 40.5479L104.158 38.9737C104.763 38.8963 105.374 39.0624 105.856 39.4356C106.339 39.8087 106.654 40.3582 106.731 40.9633C106.808 41.5684 106.642 42.1795 106.269 42.662C105.896 43.1446 105.347 43.4593 104.742 43.5367L92.4317 45.1109C92.334 45.1236 92.2357 45.1302 92.1373 45.1306Z" fill="white"/>
<path d="M84.5419 21.8579C84.0579 21.858 83.5862 21.7055 83.194 21.4221C82.8018 21.1386 82.509 20.7386 82.3573 20.2791C82.2055 19.8196 82.2025 19.3239 82.3488 18.8627C82.4951 18.4014 82.7831 17.998 83.1719 17.7098L92.5529 10.7741C93.0434 10.4116 93.6576 10.2587 94.2607 10.3492C94.8638 10.4396 95.4063 10.7659 95.7688 11.2563C96.1312 11.7468 96.2841 12.361 96.1937 12.9641C96.1032 13.5672 95.777 14.1097 95.2865 14.4722L85.9065 21.4079C85.512 21.701 85.0333 21.8588 84.5419 21.8579Z" fill="white"/>
<path d="M78.2603 97.7678C78.2608 97.766 78.2594 97.7642 78.2576 97.7642C77.835 97.7638 77.4207 97.647 77.0602 97.4266C76.6985 97.2056 76.405 96.8889 76.2121 96.5114C72.5928 89.4378 71.4044 87.1501 71.0373 86.4646C70.9574 86.3512 70.8879 86.2308 70.8299 86.1048C70.3477 85.0677 70.5468 83.6159 71.8669 82.9677C72.5524 82.6338 74.0872 82.4399 74.9874 84.097C75.0496 84.2111 75.1399 84.3823 75.2601 84.6156C75.4896 85.0525 75.8301 85.7093 76.2816 86.5859C77.1765 88.3189 78.5299 90.956 80.3042 94.4239C80.4835 94.7743 80.5698 95.1649 80.5549 95.5582C80.54 95.9515 80.4245 96.3345 80.2192 96.6704C80.014 97.0063 79.7261 97.2839 79.383 97.4766C79.0408 97.6688 78.6553 97.7703 78.263 97.7714C78.2611 97.7714 78.2598 97.7696 78.2603 97.7678Z" fill="white"/>
<path d="M51.9161 104.499C51.3544 104.498 50.8124 104.292 50.3922 103.919C49.9719 103.547 49.7024 103.033 49.6346 102.475L48.3258 91.647C48.2759 91.341 48.2882 91.028 48.3622 90.7269C48.4362 90.4256 48.5703 90.1426 48.7566 89.8946C48.9427 89.6466 49.1771 89.4389 49.4457 89.2838C49.7142 89.1287 50.0114 89.0296 50.3192 88.9923C50.6271 88.955 50.9393 88.9804 51.2372 89.0668C51.535 89.1532 51.8122 89.299 52.0522 89.4954C52.2923 89.6917 52.4901 89.9345 52.6339 90.2093C52.7776 90.4841 52.8644 90.7851 52.8889 91.0942L54.2007 101.922C54.2371 102.222 54.214 102.526 54.133 102.817C54.0518 103.108 53.9142 103.379 53.728 103.617C53.5417 103.855 53.3105 104.054 53.0474 104.201C52.7845 104.35 52.4948 104.445 52.1951 104.481C52.1026 104.492 52.0094 104.499 51.9161 104.499Z" fill="white"/>
<path d="M96.9793 76.3909C96.5312 76.3923 96.0926 76.2617 95.7182 76.0155L85.8353 69.5475C85.5796 69.3834 85.3588 69.1703 85.1859 68.9204C85.0131 68.6705 84.8914 68.3889 84.828 68.0917C84.7646 67.7946 84.7607 67.4878 84.8164 67.1892C84.8723 66.8905 84.9867 66.6058 85.1532 66.3516C85.3197 66.0974 85.5348 65.8787 85.7863 65.7081C86.0377 65.5376 86.3205 65.4185 86.6182 65.3578C86.9159 65.2972 87.2227 65.2961 87.5208 65.3546C87.819 65.4132 88.1026 65.5303 88.3553 65.699L98.2373 72.167C98.6518 72.4385 98.9668 72.8364 99.1364 73.3016C99.307 73.7666 99.3223 74.2743 99.1801 74.7487C99.039 75.2233 98.747 75.6394 98.35 75.9352C97.9529 76.2311 97.4717 76.3909 96.9761 76.3909H96.9793Z" fill="white"/>
<path d="M38.1194 65.5098C37.5708 65.853 37.3043 66.2544 37.1861 66.8828C36.902 68.4384 36.9672 70.1122 37.5242 71.5982C37.8631 72.5005 38.3938 73.3186 39.0797 73.9959C39.6815 74.5825 40.3707 75.0723 41.1226 75.4477C42.586 76.1923 44.2338 76.3603 45.8391 76.1581C47.6496 75.9204 49.3779 75.2568 50.8823 74.2219C52.4896 73.0915 54.0005 70.9926 53.5256 68.9071C53.2042 67.4936 52.1007 66.2181 51.0077 65.3138C49.9179 64.3964 48.6023 63.7877 47.1976 63.5508C46.6407 63.4639 46.0782 63.4189 45.5146 63.416C44.1856 63.4195 42.8645 63.6201 41.5945 64.0112C40.4185 64.3722 39.1679 64.8533 38.1194 65.5098ZM42.4148 72.9226C41.2943 72.3513 39.9294 71.3332 39.8941 68.8979C39.8925 68.7839 40.0387 68.7248 40.1323 68.7899C41.7555 69.9397 43.5015 70.9052 45.3383 71.6687C46.204 72.0218 46.4109 73.2383 45.4832 73.3549C44.4116 73.4896 43.3309 73.389 42.4148 72.9226ZM46.7631 66.356C46.7638 66.356 46.7645 66.3561 46.7652 66.3562C46.9947 66.3924 47.2168 66.4425 47.4317 66.5061C49.416 67.0943 48.3247 69.8249 46.4085 69.0429C46.3066 69.0006 46.205 68.9576 46.1037 68.9138C44.46 68.2042 44.8228 66.0906 46.5969 66.3318C46.6518 66.3393 46.7065 66.3473 46.7611 66.3559C46.7618 66.356 46.7625 66.356 46.7631 66.356Z" fill="white"/>
</g>
</g>
<defs>
<filter id="filter0_d_324_60" x="-112.64" y="-92.16" width="316.8" height="316.8" filterUnits="userSpaceOnUse" color-interpolation-filters="sRGB">
<feFlood flood-opacity="0" result="BackgroundImageFix"/>
<feColorMatrix in="SourceAlpha" type="matrix" values="0 0 0 0 0 0 0 0 0 0 0 0 0 0 0 0 0 0 127 0" result="hardAlpha"/>
<feOffset dx="-10.24" dy="10.24"/>
<feGaussianBlur stdDeviation="51.2"/>
<feComposite in2="hardAlpha" operator="out"/>
<feColorMatrix type="matrix" values="0 0 0 0 1 0 0 0 0 1 0 0 0 0 1 0 0 0 0.45 0"/>
<feBlend mode="normal" in2="BackgroundImageFix" result="effect1_dropShadow_324_60"/>
<feBlend mode="normal" in="SourceGraphic" in2="effect1_dropShadow_324_60" result="shape"/>
</filter>
<linearGradient id="paint0_linear_324_60" x1="-28.9872" y1="-34.7397" x2="108.125" y2="111.653" gradientUnits="userSpaceOnUse">
<stop stop-color="#FFAA58"/>
<stop offset="1" stop-color="#FD530D"/>
</linearGradient>
</defs>
</svg>
