<svg width="52" height="51" viewBox="0 0 52 51" fill="none" xmlns="http://www.w3.org/2000/svg">
<path d="M25.8239 51C40.0581 51 51.6478 39.5556 51.6478 25.5C51.6478 11.4444 40.0581 0 25.8239 0C11.5898 0 0 11.4444 0 25.5C0 39.5556 11.5898 51 25.8239 51ZM25.8239 3.2734C38.2361 3.2734 48.3328 13.2435 48.3328 25.5C48.3328 37.7565 38.2361 47.7266 25.8239 47.7266C13.4117 47.7266 3.31497 37.7565 3.31497 25.5C3.31497 13.2435 13.4117 3.2734 25.8239 3.2734Z" fill="white"/>
<path d="M40.5515 26.2373C40.5009 26.6746 40.4503 27.1118 40.3997 27.5366C40.134 29.4482 39.476 31.2223 38.4385 32.859C37.2745 34.6831 35.8068 36.2074 33.9469 37.3693C32.9853 37.9815 31.9477 38.4563 30.8723 38.8061C30.2776 39.006 29.8601 38.6937 29.8601 38.069C29.8601 36.8446 29.8601 35.6202 29.8601 34.3833C29.8601 33.6336 29.7842 32.8965 29.3666 32.2468C29.2401 32.0594 29.0883 31.8845 28.9491 31.6971C29.5058 31.5971 30.0625 31.5222 30.6066 31.3847C32.0616 31.0224 33.3648 30.3852 34.2505 29.1359C34.8958 28.2113 35.1995 27.1618 35.326 26.0499C35.4272 25.1878 35.4525 24.3382 35.2754 23.4761C35.0856 22.614 34.7187 21.8519 34.1366 21.1897C33.9975 21.0273 33.9595 20.8899 34.0354 20.6775C34.415 19.5406 34.2632 18.4161 33.833 17.3291C33.8077 17.2667 33.7065 17.2042 33.6305 17.1917C33.1244 17.1167 32.6436 17.2542 32.2008 17.4666C31.4796 17.8039 30.7837 18.1912 30.0752 18.541C29.9613 18.6035 29.7842 18.641 29.6703 18.6035C27.4434 18.0413 25.2166 18.0538 22.9897 18.6035C22.8632 18.641 22.6734 18.6035 22.5595 18.5161C21.6612 17.9413 20.6996 17.4916 19.6621 17.2292C19.6494 17.2292 19.6241 17.2292 19.6115 17.2167C18.9535 17.0793 18.8397 17.1542 18.6499 17.7789C18.3462 18.7909 18.2956 19.7904 18.6499 20.8024C18.6752 20.8774 18.6499 21.0148 18.5866 21.0898C17.4099 22.4017 17.1316 23.9759 17.2834 25.6501C17.372 26.6746 17.6124 27.6491 18.0805 28.5736C18.7258 29.848 19.8013 30.6226 21.1171 31.0849C21.9396 31.3723 22.8126 31.5222 23.673 31.7346C23.2301 32.1968 22.9771 32.7466 22.8758 33.3588C22.8632 33.4337 22.8126 33.5462 22.7493 33.5712C21.7624 33.9335 20.7629 34.1334 19.7886 33.5462C19.3458 33.2838 19.0168 32.8965 18.7511 32.4467C18.3462 31.7596 17.7642 31.2598 16.9798 31.0224C16.7014 30.935 16.3851 30.96 16.0814 30.9725C15.879 30.9725 15.8157 31.1349 15.9422 31.3098C16.0688 31.4597 16.1953 31.6471 16.3598 31.7346C17.1063 32.1594 17.5238 32.8465 17.8654 33.5837C18.0679 34.021 18.245 34.4707 18.6246 34.8206C19.2319 35.3578 19.9531 35.5702 20.7376 35.5952C21.3955 35.6202 22.0661 35.5952 22.762 35.5952C22.762 35.5952 22.7746 35.6577 22.7746 35.7201C22.7746 36.4573 22.7999 37.2069 22.7999 37.944C22.7999 38.6687 22.3697 38.9685 21.6612 38.7311C18.0426 37.4943 15.3855 35.1454 13.6142 31.822C12.2856 29.3233 11.8555 26.6371 12.1591 23.8384C12.4754 20.9024 13.6521 18.3411 15.6133 16.1297C17.663 13.8309 20.2188 12.2941 23.2681 11.6819C27.6965 10.7948 31.7453 11.6819 35.288 14.493C37.9704 16.6295 39.6405 19.4031 40.3111 22.739C40.4123 23.2262 40.4503 23.7385 40.5135 24.2383C40.5262 24.3382 40.5515 24.4382 40.5642 24.5256V26.1748L40.5515 26.2373Z" fill="white"/>
</svg>
