<svg width="52" height="51" viewBox="0 0 52 51" fill="none" xmlns="http://www.w3.org/2000/svg">
<path d="M34.4276 18.4655C34.4276 19.3151 33.7317 19.9898 32.884 19.9898C32.0363 19.9898 31.3404 19.3026 31.3404 18.4655C31.3404 17.6285 32.0363 16.9413 32.884 16.9413C33.7317 16.9413 34.4276 17.6285 34.4276 18.4655ZM32.5044 25.3122C32.5044 28.848 29.5943 31.734 26.001 31.734C22.4077 31.734 19.4976 28.8605 19.4976 25.3122C19.4976 21.7639 22.4077 18.8903 26.001 18.8903C29.5943 18.8903 32.5044 21.7639 32.5044 25.3122ZM30.1637 25.3122C30.1637 23.0508 28.2911 21.2017 26.001 21.2017C23.7109 21.2017 21.8383 23.0508 21.8383 25.3122C21.8383 27.5736 23.7109 29.4227 26.001 29.4227C28.2911 29.4227 30.1637 27.5736 30.1637 25.3122ZM39.147 20.1522C39.147 15.8293 35.6043 12.3311 31.2265 12.3311H20.4086C16.0308 12.3311 12.488 15.8293 12.488 20.1522V30.8345C12.488 35.1574 16.0308 38.6557 20.4086 38.6557H31.2265C35.6043 38.6557 39.147 35.1574 39.147 30.8345V20.1522ZM36.5406 30.7095C36.5406 33.6831 34.0986 36.0819 31.1 36.0819H20.5224C17.5111 36.0819 15.0818 33.6706 15.0818 30.7095V20.2647C15.0818 17.2911 17.5238 14.8923 20.5224 14.8923H31.1C34.1113 14.8923 36.5406 17.3036 36.5406 20.2647V30.7095Z" fill="white"/>
<path d="M25.8239 0C11.5771 0 0 11.4444 0 25.5C0 39.5556 11.5898 51 25.8239 51C40.058 51 51.6478 39.5556 51.6478 25.5C51.6478 11.4444 40.058 0 25.8239 0ZM25.8239 47.7266C13.4117 47.7266 3.31497 37.7565 3.31497 25.5C3.31497 13.2435 13.4117 3.2734 25.8239 3.2734C38.2361 3.2734 48.3328 13.2435 48.3328 25.5C48.3328 37.7565 38.2361 47.7266 25.8239 47.7266Z" fill="white"/>
</svg>
