<svg width="52" height="51" viewBox="0 0 52 51" fill="none" xmlns="http://www.w3.org/2000/svg">
<path d="M14.3101 18.9536H19.2446V34.6209H14.3101V18.9536ZM16.7773 11.1699C18.3589 11.1699 19.6368 12.4318 19.6368 13.9935C19.6368 15.5553 18.3589 16.8172 16.7773 16.8172C15.1958 16.8172 13.9178 15.5553 13.9178 13.9935C13.9178 12.4318 15.1958 11.1699 16.7773 11.1699ZM22.3445 34.6209H27.279V26.8747C27.279 24.8257 27.6712 22.8517 30.2397 22.8517C32.8081 22.8517 32.8081 25.1881 32.8081 27.0122V34.6334H37.7426V26.0376C37.7426 21.8147 36.819 18.5788 31.8339 18.5788C29.4299 18.5788 27.823 19.8782 27.1651 21.115H27.1018V18.9661H22.3698V34.6334L22.3445 34.6209Z" fill="white"/>
<path d="M25.8239 0C11.5898 0 0 11.4444 0 25.5C0 39.5556 11.5898 51 25.8239 51C40.0581 51 51.6478 39.5556 51.6478 25.5C51.6478 11.4444 40.0581 0 25.8239 0ZM25.8239 47.7266C13.4117 47.7266 3.31497 37.7565 3.31497 25.5C3.31497 13.2435 13.4117 3.2734 25.8239 3.2734C38.2361 3.2734 48.3328 13.2435 48.3328 25.5C48.3328 37.7565 38.2361 47.7266 25.8239 47.7266Z" fill="white"/>
</svg>
