<svg width="149" height="145" viewBox="0 0 149 145" fill="none" xmlns="http://www.w3.org/2000/svg">
<path d="M19.8414 145C6.63486 145 0 138.446 0 125.465V93.3898C0 91.1843 0.884648 89.0417 2.46438 87.7184C0.821459 84.8827 0 81.2907 0 77.0056V42.2208C0 36.4863 0.379135 32.5793 3.60178 29.5545L26.0339 8.44415C32.8584 2.01651 37.8503 0 47.1391 0H101.861C111.213 0 116.142 2.01651 123.029 8.44415L145.398 29.5545C148.621 32.5793 149 36.4863 149 42.2208V77.0056C149 81.2907 148.179 84.8827 146.536 87.7184C148.115 89.0417 149 91.1843 149 93.3898V125.465C149 138.446 142.365 145 129.159 145H19.8414ZM74.5 58.1008C83.4729 58.1008 89.2231 50.4129 89.2231 43.103V42.8509C89.2231 40.2043 90.7396 37.7466 94.0254 37.7466H134.214C137.689 37.7466 139.079 36.2342 136.046 33.3985L115.194 13.8005C111.339 10.2086 108.875 8.82225 102.809 8.82225H46.1913C40.1883 8.82225 37.6607 10.2086 33.8062 13.8005L12.9538 33.3985C10.0471 36.1082 11.2477 37.7466 14.8494 37.7466H54.9746C58.2604 37.7466 59.8401 40.2043 59.8401 42.8509V43.103C59.8401 50.4129 65.5903 58.1008 74.5 58.1008ZM19.9678 86.395H129.032C135.288 86.395 138.827 82.9922 138.827 76.4385V47.01H98.7646C97.2481 58.731 87.3274 67.4902 74.5 67.4902C61.6726 67.4902 51.7519 58.731 50.2354 47.01H10.1735V76.4385C10.1735 82.9922 13.6489 86.395 19.9678 86.395ZM74.5 106.749C81.8299 106.749 87.0114 101.519 88.6544 95.6584H60.3456C61.9885 101.519 67.1701 106.749 74.5 106.749ZM19.9678 134.854H129.032C135.288 134.854 138.827 131.452 138.827 124.898V95.6584H98.7646C97.2481 107.379 87.3274 116.139 74.5 116.139C61.6726 116.139 51.7519 107.379 50.2354 95.6584H10.1735V124.898C10.1735 131.452 13.6489 134.854 19.9678 134.854Z" fill="#8F4B97"/>
</svg>
