<?xml version="1.0" encoding="UTF-8"?>
<svg id="Livello_2" data-name="Livello 2" xmlns="http://www.w3.org/2000/svg" viewBox="0 0 161.63 37.05">
  <defs>
    <style>
      .cls-1 {
        fill: #fff;
        stroke-width: 0px;
      }
    </style>
  </defs>
  <g id="Livello_1-2" data-name="Livello 1">
    <g>
      <path class="cls-1" d="m17.55,15.65c-.79,0-1.5-.19-2.15-.57s-1.17-.89-1.56-1.53-.58-1.36-.58-2.15.19-1.52.58-2.17.91-1.17,1.56-1.56,1.37-.58,2.15-.58,1.52.19,2.16.58,1.17.91,1.55,1.56.58,1.38.58,2.17v2.4h5.54v-2.4c0-.79.19-1.52.58-2.17s.91-1.17,1.56-1.56,1.37-.58,2.15-.58,1.52.19,2.16.58,1.17.91,1.55,1.56.58,1.38.58,2.17-.19,1.51-.58,2.15-.9,1.15-1.55,1.53-1.37.57-2.16.57h-2.42v5.62h2.42c.79,0,1.52.19,2.16.57s1.17.89,1.55,1.53.58,1.36.58,2.15-.19,1.52-.58,2.17-.9,1.17-1.55,1.56-1.37.58-2.16.58-1.5-.19-2.15-.58-1.17-.9-1.56-1.56-.58-1.38-.58-2.17v-2.4h-5.54v2.4c0,.79-.19,1.52-.58,2.17s-.9,1.17-1.55,1.56-1.37.58-2.16.58-1.5-.19-2.15-.58-1.17-.9-1.56-1.56-.58-1.38-.58-2.17.19-1.51.58-2.15.91-1.15,1.56-1.53,1.37-.57,2.15-.57h2.42v-5.62h-2.42Zm2.42-1.82v-2.43c0-.45-.11-.86-.33-1.23s-.51-.66-.88-.88-.77-.33-1.21-.33-.84.11-1.21.33-.66.52-.88.88-.33.78-.33,1.23.11.85.33,1.21.51.66.88.88.77.33,1.21.33h2.42Zm-3.63,9.56c-.36.22-.66.51-.88.88s-.33.78-.33,1.23.11.85.33,1.21.51.66.88.88.77.33,1.21.33.84-.11,1.21-.33.66-.52.88-.88.33-.77.33-1.21v-2.43h-2.42c-.44,0-.84.11-1.21.32Zm11.04-2.1v-5.66h-5.54v5.66h5.54Zm5.51-7.79c.37-.22.66-.52.88-.88s.32-.77.32-1.21-.11-.86-.32-1.23-.51-.66-.88-.88-.77-.33-1.21-.33-.84.11-1.21.33-.66.52-.88.88-.33.78-.33,1.23v2.43h2.42c.44,0,.85-.11,1.21-.33Zm-3.63,9.57v2.43c0,.44.11.85.33,1.21s.51.66.88.88.77.33,1.21.33.85-.11,1.21-.33.66-.52.88-.88.32-.77.32-1.21-.11-.86-.32-1.23-.51-.66-.88-.88-.77-.32-1.21-.32h-2.42Z"/>
      <path class="cls-1" d="m2.42,31.71c-.81-1.96-1.42-4.05-1.82-6.27-.4-2.22-.6-4.52-.6-6.9s.2-4.69.6-6.91c.4-2.22,1.01-4.32,1.82-6.28.81-1.96,1.84-3.74,3.08-5.34h1.53c-.85,1.1-1.62,2.37-2.28,3.79-.67,1.43-1.24,2.95-1.7,4.58-.47,1.63-.82,3.3-1.06,5.02-.24,1.72-.36,3.44-.36,5.15s.12,3.4.36,5.12c.24,1.72.6,3.4,1.06,5.03.47,1.63,1.04,3.16,1.7,4.58.67,1.42,1.43,2.68,2.28,3.78h-1.53c-1.24-1.6-2.27-3.38-3.08-5.34Z"/>
      <path class="cls-1" d="m99.73,37.05c.85-1.1,1.62-2.36,2.28-3.78s1.24-2.94,1.71-4.58c.47-1.63.83-3.31,1.07-5.03s.37-3.43.37-5.12-.12-3.42-.37-5.15c-.25-1.72-.61-3.4-1.07-5.02-.47-1.63-1.04-3.15-1.71-4.58s-1.43-2.69-2.28-3.79h1.53c1.24,1.6,2.27,3.38,3.08,5.34s1.42,4.06,1.82,6.28.6,4.53.6,6.91-.2,4.68-.6,6.9c-.4,2.22-1.01,4.31-1.82,6.27-.81,1.96-1.84,3.74-3.08,5.34h-1.53Z"/>
      <path class="cls-1" d="m43.72,17.37h14.4v1.04h-14.4v-1.04Zm6.67-6.5h1.04v14.04h-1.04v-14.04Z"/>
      <path class="cls-1" d="m80.18,9.77c4.79,0,8.69,3.9,8.69,8.69s-3.9,8.69-8.69,8.69-8.69-3.9-8.69-8.69,3.9-8.69,8.69-8.69m0-3c-6.45,0-11.69,5.23-11.69,11.69s5.23,11.69,11.69,11.69,11.69-5.23,11.69-11.69-5.23-11.69-11.69-11.69h0Z"/>
      <path class="cls-1" d="m149.95,9.77c4.79,0,8.69,3.9,8.69,8.69s-3.9,8.69-8.69,8.69-8.69-3.9-8.69-8.69,3.9-8.69,8.69-8.69m0-3c-6.45,0-11.69,5.23-11.69,11.69s5.23,11.69,11.69,11.69,11.69-5.23,11.69-11.69-5.23-11.69-11.69-11.69h0Z"/>
      <path class="cls-1" d="m114.76,17.37h14.4v1.04h-14.4v-1.04Zm6.67-6.5h1.04v14.04h-1.04v-14.04Z"/>
    </g>
  </g>
</svg>