<svg width="392" height="365" viewBox="0 0 392 365" fill="none" xmlns="http://www.w3.org/2000/svg">
<path opacity="0.4" d="M103.51 365C98.8129 365 95.0796 363.375 92.3097 360.124C89.6602 356.993 88.3355 352.719 88.3355 347.301V298.538H76.5935C60.3355 298.538 46.486 295.528 35.0452 289.508C23.6043 283.488 14.8731 274.758 8.85161 263.32C2.95054 251.882 0 238.096 0 221.962V76.7566C0 60.5022 2.95054 46.7161 8.85161 35.3983C14.8731 23.9601 23.6043 15.2309 35.0452 9.21079C46.486 3.07026 60.3355 0 76.5935 0H315.406C331.665 0 345.514 3.07026 356.955 9.21079C368.396 15.2309 377.067 23.9601 382.968 35.3983C388.989 46.8365 392 60.6226 392 76.7566V221.962C392 238.096 388.989 251.882 382.968 263.32C377.067 274.638 368.396 283.367 356.955 289.508C345.514 295.528 331.665 298.538 315.406 298.538H186.787L123.381 354.344C119.406 357.836 115.974 360.485 113.084 362.291C110.194 364.097 107.002 365 103.51 365ZM109.11 339.896L168.542 283.548C171.553 280.658 174.323 278.792 176.852 277.949C179.381 276.986 182.692 276.504 186.787 276.504H315.226C332.929 276.504 346.417 271.748 355.69 262.237C365.084 252.725 369.781 239.24 369.781 221.781V76.7566C369.781 59.4186 365.084 46.0539 355.69 36.6625C346.417 27.1508 332.929 22.3949 315.226 22.3949H76.7742C58.9505 22.3949 45.4021 27.1508 36.129 36.6625C26.8559 46.0539 22.2194 59.4186 22.2194 76.7566V221.781C22.2194 239.24 26.8559 252.725 36.129 262.237C45.4021 271.748 58.9505 276.504 76.7742 276.504H98.6323C102.366 276.504 105.015 277.287 106.581 278.852C108.267 280.417 109.11 283.066 109.11 286.799V339.896ZM108.748 130.757C108.748 120.282 112.301 111.673 119.406 104.931C126.632 98.0678 135.604 94.6363 146.323 94.6363C157.402 94.6363 166.675 98.6698 174.142 106.737C181.609 114.683 185.342 124.918 185.342 137.439C185.342 148.757 183.355 158.63 179.381 167.058C175.406 175.366 170.409 182.229 164.387 187.647C158.486 193.065 152.525 197.099 146.503 199.748C140.602 202.396 135.544 203.721 131.329 203.721C128.92 203.721 126.933 202.999 125.368 201.554C123.923 199.988 123.2 198.122 123.2 195.955C123.2 194.029 123.742 192.403 124.826 191.079C125.91 189.634 128.017 188.55 131.148 187.828C134.641 186.744 138.555 184.938 142.89 182.41C147.226 179.881 151.32 176.63 155.174 172.657C159.028 168.563 162.039 163.808 164.206 158.389H162.581C160.172 161.52 157.161 163.687 153.548 164.891C149.935 165.975 146.142 166.517 142.168 166.517C132.052 166.517 123.923 163.085 117.781 156.222C111.759 149.359 108.748 140.871 108.748 130.757ZM207.2 130.757C207.2 120.282 210.753 111.673 217.858 104.931C225.084 98.0678 234.056 94.6363 244.774 94.6363C255.854 94.6363 265.127 98.6698 272.594 106.737C280.06 114.683 283.794 124.918 283.794 137.439C283.794 148.757 281.806 158.63 277.832 167.058C273.858 175.366 268.86 182.229 262.839 187.647C256.938 193.065 250.976 197.099 244.955 199.748C238.933 202.396 233.815 203.721 229.6 203.721C227.191 203.721 225.265 202.999 223.819 201.554C222.374 199.988 221.652 198.122 221.652 195.955C221.652 194.029 222.194 192.403 223.277 191.079C224.482 189.634 226.589 188.55 229.6 187.828C233.092 186.744 237.006 184.938 241.342 182.41C245.677 179.881 249.772 176.63 253.626 172.657C257.48 168.563 260.43 163.808 262.477 158.389H261.032C258.624 161.52 255.553 163.687 251.819 164.891C248.206 165.975 244.413 166.517 240.439 166.517C230.443 166.517 222.374 163.085 216.232 156.222C210.211 149.359 207.2 140.871 207.2 130.757Z" fill="#CC7332"/>
</svg>
