<svg width="52" height="51" viewBox="0 0 52 51" fill="none" xmlns="http://www.w3.org/2000/svg">
<path d="M22.1546 33.2461C22.8758 33.0962 23.5084 32.8214 24.0399 32.4216C24.508 32.0717 24.9002 31.6469 25.2165 31.1222C25.71 30.3476 25.9631 29.473 25.9631 28.4985C25.9631 27.524 25.7479 26.7493 25.3178 26.0872C24.8876 25.425 24.2423 24.9377 23.3946 24.6379C23.9513 24.3505 24.3815 24.0382 24.6598 23.7008C25.1786 23.0886 25.4316 22.289 25.4316 21.277C25.4316 20.265 25.1786 19.4654 24.6725 18.7657C23.8248 17.6288 22.3824 17.0416 20.358 17.0166H12.3109V33.4585H19.8139C20.6616 33.4585 21.4461 33.3836 22.1673 33.2337L22.1546 33.2461ZM15.6132 19.8777H19.2319C20.029 19.8777 20.6869 19.9652 21.2057 20.1401C21.8003 20.3899 22.104 20.8897 22.104 21.6518C22.104 22.339 21.8763 22.8263 21.4208 23.1011C20.9653 23.376 20.3833 23.5134 19.6621 23.5134H15.6132V19.8902V19.8777ZM15.6132 30.6099V26.2246H19.7127C20.4339 26.2246 20.9779 26.3245 21.3828 26.4995C22.0914 26.8243 22.4456 27.4115 22.4456 28.2611C22.4456 29.2731 22.0787 29.9603 21.3449 30.3101C20.94 30.4975 20.3833 30.5974 19.6621 30.5974H15.6132V30.6099Z" fill="white"/>
<path d="M28.7719 32.3964C30.0246 33.3959 31.4669 33.8956 33.1118 33.8956C35.0982 33.8956 36.6418 33.3084 37.7426 32.1215C38.4512 31.3719 38.856 30.6472 38.932 29.9226H35.6423C35.4525 30.2849 35.2247 30.5598 34.9843 30.7597C34.5289 31.1345 33.9342 31.3219 33.2003 31.3219C32.5045 31.3219 31.9224 31.172 31.429 30.8596C30.6192 30.3724 30.189 29.5103 30.1384 28.2984H39.1091C39.1218 27.2489 39.0838 26.4493 39.0079 25.8871C38.856 24.9375 38.5271 24.1004 38.021 23.3758C37.4643 22.5512 36.7557 21.9515 35.8953 21.5767C35.035 21.2019 34.0734 21.002 32.9979 21.002C31.1886 21.002 29.7209 21.5642 28.5948 22.6886C27.4687 23.8131 26.8994 25.4248 26.8994 27.5363C26.8994 29.7851 27.532 31.4094 28.7846 32.4089L28.7719 32.3964ZM31.0747 24.3128C31.5302 23.8506 32.1755 23.6132 32.9979 23.6132C33.7571 23.6132 34.3897 23.8381 34.9084 24.2629C35.4272 24.7001 35.7056 25.3373 35.7688 26.1869H30.2143C30.3282 25.3998 30.6192 24.7626 31.0747 24.3003V24.3128Z" fill="white"/>
<path d="M36.4015 17.9785H29.1642V19.6402H36.4015V17.9785Z" fill="white"/>
<path d="M25.8239 0C11.5898 0 0 11.4444 0 25.5C0 39.5556 11.5898 51 25.8239 51C40.0581 51 51.6478 39.5556 51.6478 25.5C51.6478 11.4444 40.0581 0 25.8239 0ZM25.8239 47.7266C13.4117 47.7266 3.31497 37.7565 3.31497 25.5C3.31497 13.2435 13.4117 3.2734 25.8239 3.2734C38.2361 3.2734 48.3328 13.2435 48.3328 25.5C48.3328 37.7565 38.2361 47.7266 25.8239 47.7266Z" fill="white"/>
</svg>
