<svg width="157" height="141" viewBox="0 0 157 141" fill="none" xmlns="http://www.w3.org/2000/svg">
<path d="M0 126.131V32.312C0 27.4355 1.18616 23.7675 3.55847 21.3081C5.97314 18.8486 9.61634 17.6189 14.4881 17.6189H22.4946C27.3663 17.6189 30.9883 18.8486 33.3606 21.3081C35.733 23.7675 36.9191 27.4355 36.9191 32.312V39.9447C38.4865 39.5631 40.1175 39.3722 41.812 39.3722H69.5172C71.2117 39.3722 72.8215 39.5631 74.3466 39.9447V14.693C74.3466 9.81656 75.5327 6.1486 77.905 3.68916C80.3197 1.22972 83.9629 0 88.8346 0H101.289C106.161 0 109.783 1.22972 112.155 3.68916C114.57 6.1486 115.777 9.81656 115.777 14.693V126.131C115.777 131.008 114.57 134.654 112.155 137.071C109.783 139.531 106.161 140.761 101.289 140.761H14.4881C9.61634 140.761 5.97314 139.531 3.55847 137.071C1.18616 134.654 0 131.008 0 126.131ZM9.59516 125.368C9.59516 127.276 10.0823 128.718 11.0567 129.693C12.031 130.668 13.5137 131.156 15.5048 131.156H27.324V33.0116C27.324 31.1458 26.8368 29.7253 25.8624 28.75C24.9305 27.7323 23.4689 27.2235 21.4779 27.2235H15.5048C13.5137 27.2235 12.031 27.7323 11.0567 28.75C10.0823 29.7253 9.59516 31.1458 9.59516 33.0116V125.368ZM36.9191 131.156H74.3466V54.7649C74.3466 52.8992 73.8594 51.4786 72.8851 50.5033C71.9531 49.4856 70.4916 48.9768 68.5005 48.9768H42.8287C40.88 48.9768 39.3973 49.4856 38.3806 50.5033C37.4063 51.4786 36.9191 52.8992 36.9191 54.7649V131.156ZM83.9417 131.156H100.273C102.264 131.156 103.746 130.668 104.721 129.693C105.695 128.718 106.182 127.276 106.182 125.368V15.3927C106.182 13.5269 105.695 12.1064 104.721 11.1311C103.746 10.1134 102.264 9.60454 100.273 9.60454H89.8513C87.9026 9.60454 86.4199 10.1134 85.4032 11.1311C84.4289 12.1064 83.9417 13.5269 83.9417 15.3927V131.156ZM42.7016 61.3164C42.7016 60.2139 43.0617 59.3022 43.7819 58.5813C44.5444 57.818 45.5187 57.4364 46.7049 57.4364H64.7514C65.8952 57.4364 66.8272 57.818 67.5474 58.5813C68.3099 59.3022 68.6912 60.2139 68.6912 61.3164C68.6912 62.4189 68.3099 63.3518 67.5474 64.1151C66.8272 64.8783 65.8952 65.26 64.7514 65.26H46.7049C45.5187 65.26 44.5444 64.8783 43.7819 64.1151C43.0617 63.3518 42.7016 62.4189 42.7016 61.3164ZM42.7016 118.816C42.7016 117.714 43.0617 116.802 43.7819 116.081C44.5444 115.318 45.5187 114.936 46.7049 114.936H64.7514C65.8952 114.936 66.8272 115.318 67.5474 116.081C68.3099 116.802 68.6912 117.714 68.6912 118.816C68.6912 119.919 68.3099 120.852 67.5474 121.615C66.8272 122.378 65.8952 122.76 64.7514 122.76H46.7049C45.5187 122.76 44.5444 122.378 43.7819 121.615C43.0617 120.852 42.7016 119.919 42.7016 118.816ZM121.496 127.912L110.503 32.8208C109.91 27.9867 110.651 24.2552 112.727 21.6261C114.803 18.9971 118.298 17.3433 123.212 16.6648L129.821 15.7743C134.692 15.0535 138.441 15.8167 141.068 18.0642C143.737 20.2692 145.347 23.7887 145.897 28.6228L156.827 123.714C157.377 128.548 156.615 132.28 154.539 134.909C152.506 137.538 149.053 139.192 144.182 139.87L137.573 140.761C132.701 141.439 128.952 140.676 126.326 138.471C123.699 136.266 122.089 132.746 121.496 127.912ZM130.901 126.004C131.113 127.912 131.748 129.311 132.807 130.202C133.909 131.092 135.434 131.389 137.382 131.092L142.085 130.456C144.033 130.202 145.431 129.545 146.278 128.485C147.126 127.424 147.443 125.94 147.232 124.032L136.493 30.4674C136.281 28.644 135.624 27.2871 134.523 26.3966C133.421 25.4637 131.896 25.1457 129.948 25.4425L125.372 26.0149C123.381 26.3118 121.962 26.9902 121.115 28.0503C120.268 29.1104 119.95 30.5734 120.162 32.4392L130.901 126.004Z" fill="#7EAA57"/>
</svg>
