<svg width="161" height="156" viewBox="0 0 161 156" fill="none" xmlns="http://www.w3.org/2000/svg">
<path d="M115.163 80.1412L116.155 68.5177C117.884 68.9765 119.765 69.2059 121.799 69.2059C126.324 69.2059 130.442 68.1098 134.154 65.9177C137.916 63.7255 140.891 60.7686 143.077 57.0471C145.314 53.3255 146.433 49.1961 146.433 44.6588C146.433 40.1216 145.314 35.9922 143.077 32.2706C140.891 28.498 137.942 25.5157 134.23 23.3235C130.519 21.1314 126.375 20.0353 121.799 20.0353C117.273 20.0353 113.155 21.1569 109.443 23.4C105.732 25.5922 102.783 28.549 100.596 32.2706C98.4101 35.9922 97.3169 40.1216 97.3169 44.6588C97.3169 45.8314 97.3932 46.9784 97.5457 48.1C97.6982 49.1706 97.9016 50.2157 98.1558 51.2353H86.3344C85.9785 49.0941 85.8006 46.902 85.8006 44.6588C85.8006 39.6627 86.7158 34.998 88.5462 30.6647C90.4274 26.2804 93.0205 22.4314 96.3254 19.1176C99.6303 15.7529 103.469 13.1529 107.842 11.3176C112.214 9.43137 116.867 8.48824 121.799 8.48824C128.459 8.48824 134.51 10.1196 139.95 13.3824C145.441 16.6451 149.814 21.0294 153.068 26.5353C156.322 31.9902 157.949 38.0314 157.949 44.6588C157.949 49.6549 157.009 54.3451 155.127 58.7294C153.297 63.0628 150.704 66.8863 147.348 70.2C144.043 73.5137 140.204 76.1137 135.832 78C131.51 79.8353 126.832 80.753 121.799 80.753C119.46 80.753 117.248 80.549 115.163 80.1412ZM91.2155 104.153C85.7243 104.153 80.7415 102.827 76.2672 100.176C71.7928 97.4745 68.2083 93.8804 65.5135 89.3941C62.8696 84.9079 61.5476 79.9118 61.5476 74.4059C61.5476 68.951 62.8696 63.9804 65.5135 59.4941C68.2083 54.9569 71.7928 51.3627 76.2672 48.7118C80.7415 46.0098 85.7243 44.6588 91.2155 44.6588C96.7068 44.6588 101.69 46.0098 106.164 48.7118C110.638 51.3627 114.197 54.9569 116.841 59.4941C119.536 63.9804 120.883 68.951 120.883 74.4059C120.883 79.9118 119.536 84.9079 116.841 89.3941C114.197 93.8804 110.638 97.4745 106.164 100.176C101.69 102.827 96.7068 104.153 91.2155 104.153ZM91.2155 92.6059C94.5713 92.6059 97.622 91.7902 100.368 90.1588C103.113 88.5275 105.3 86.3608 106.927 83.6588C108.554 80.9059 109.367 77.8216 109.367 74.4059C109.367 71.0412 108.554 67.9824 106.927 65.2294C105.3 62.4765 103.113 60.2843 100.368 58.6529C97.622 57.0216 94.5713 56.2059 91.2155 56.2059C87.8598 56.2059 84.8091 57.0216 82.0635 58.6529C79.3179 60.2843 77.1315 62.4765 75.5045 65.2294C73.8775 67.9824 73.0639 71.0412 73.0639 74.4059C73.0639 77.8216 73.8775 80.9059 75.5045 83.6588C77.1315 86.3608 79.3179 88.5275 82.0635 90.1588C84.8091 91.7902 87.8598 92.6059 91.2155 92.6059ZM20.2108 84.3471C16.4991 84.3471 13.118 83.4549 10.0673 81.6706C7.01658 79.8353 4.57603 77.3882 2.74562 74.3294C0.915207 71.2196 0 67.8039 0 64.0824C0 60.4118 0.915207 57.0471 2.74562 53.9882C4.57603 50.9294 7.01658 48.5078 10.0673 46.7235C13.118 44.8882 16.4991 43.9706 20.2108 43.9706C23.8716 43.9706 27.2274 44.8882 30.2781 46.7235C33.3288 48.5078 35.7693 50.9294 37.5997 53.9882C39.4301 57.0471 40.3453 60.4118 40.3453 64.0824C40.3453 67.8039 39.4301 71.1941 37.5997 74.253C35.7693 77.3118 33.3288 79.7588 30.2781 81.5941C27.2274 83.4294 23.8716 84.3471 20.2108 84.3471ZM20.2108 72.8C22.5497 72.8 24.558 71.9588 26.2359 70.2765C27.9646 68.5431 28.829 66.4784 28.829 64.0824C28.829 61.7373 27.9646 59.7235 26.2359 58.0412C24.558 56.3588 22.5497 55.5176 20.2108 55.5176C17.8211 55.5176 15.7619 56.3588 14.0332 58.0412C12.3553 59.7235 11.5163 61.7373 11.5163 64.0824C11.5163 66.4784 12.3553 68.5431 14.0332 70.2765C15.7619 71.9588 17.8211 72.8 20.2108 72.8ZM49.955 153.553C45.9891 153.553 42.3537 152.559 39.0488 150.571C35.7439 148.633 33.1 146.008 31.117 142.694C29.1849 139.38 28.2189 135.735 28.2189 131.759C28.2189 127.782 29.1849 124.163 31.117 120.9C33.1 117.637 35.7439 115.037 39.0488 113.1C42.3537 111.112 45.9891 110.118 49.955 110.118C53.9209 110.118 57.5309 111.112 60.7849 113.1C64.039 115.037 66.6321 117.637 68.5642 120.9C70.5471 124.163 71.5386 127.782 71.5386 131.759C71.5386 135.735 70.5471 139.38 68.5642 142.694C66.6321 146.008 64.039 148.633 60.7849 150.571C57.5309 152.559 53.9209 153.553 49.955 153.553ZM49.955 141.929C52.7006 141.929 55.0649 140.91 57.0478 138.871C59.0308 136.882 60.0223 134.512 60.0223 131.759C60.0223 129.006 59.0308 126.635 57.0478 124.647C55.0649 122.659 52.7006 121.665 49.955 121.665C47.2094 121.665 44.8197 122.659 42.7859 124.647C40.7521 126.635 39.7352 129.006 39.7352 131.759C39.7352 134.563 40.7267 136.959 42.7096 138.947C44.7434 140.935 47.1585 141.929 49.955 141.929ZM50.1075 41.9824C49.4465 41.9824 48.8873 41.7784 48.4297 41.3706C47.972 40.9627 47.667 40.4275 47.5144 39.7647C46.9043 36.298 46.345 33.6216 45.8366 31.7353C45.3281 29.798 44.6163 28.3706 43.7011 27.4529C42.7859 26.5353 41.3622 25.8471 39.4301 25.3882C37.5489 24.8784 34.8795 24.2667 31.4221 23.5529C30.7102 23.451 30.151 23.1706 29.7442 22.7118C29.3374 22.202 29.1341 21.6157 29.1341 20.9529C29.1341 20.3412 29.3374 19.8059 29.7442 19.3471C30.151 18.8373 30.7102 18.5314 31.4221 18.4294C34.8795 17.7157 37.5489 17.1294 39.4301 16.6706C41.3622 16.1608 42.7859 15.4471 43.7011 14.5294C44.6163 13.5608 45.3281 12.1333 45.8366 10.2471C46.345 8.36078 46.9043 5.68431 47.5144 2.21765C47.667 1.5549 47.972 1.01961 48.4297 0.611765C48.8873 0.203922 49.4465 0 50.1075 0C50.7685 0 51.3278 0.203922 51.7854 0.611765C52.243 1.01961 52.5481 1.5549 52.7006 2.21765C53.3616 5.68431 53.9209 8.36078 54.3785 10.2471C54.8869 12.1333 55.5988 13.5608 56.514 14.5294C57.4292 15.4471 58.8274 16.1608 60.7087 16.6706C62.6408 17.1294 65.3355 17.7157 68.793 18.4294C69.5048 18.5314 70.0641 18.8373 70.4709 19.3471C70.8776 19.8059 71.081 20.3412 71.081 20.9529C71.081 21.6157 70.8776 22.202 70.4709 22.7118C70.0641 23.1706 69.5048 23.451 68.793 23.5529C65.3355 24.2667 62.6408 24.8784 60.7087 25.3882C58.8274 25.8471 57.4292 26.5353 56.514 27.4529C55.5988 28.3706 54.8869 29.798 54.3785 31.7353C53.9209 33.6216 53.3616 36.298 52.7006 39.7647C52.5481 40.4275 52.243 40.9627 51.7854 41.3706C51.3278 41.7784 50.7685 41.9824 50.1075 41.9824ZM132.934 156C132.018 156 131.256 155.72 130.646 155.159C130.086 154.598 129.781 153.859 129.73 152.941C129.171 148.353 128.586 144.759 127.976 142.159C127.417 139.61 126.476 137.673 125.154 136.347C123.832 135.022 121.824 134.002 119.129 133.288C116.485 132.626 112.774 131.912 107.994 131.147C107.028 130.994 106.266 130.637 105.706 130.076C105.147 129.516 104.867 128.802 104.867 127.935C104.867 127.171 105.122 126.482 105.63 125.871C106.138 125.259 106.825 124.876 107.689 124.724C112.519 123.806 116.282 123.016 118.977 122.353C121.722 121.639 123.756 120.645 125.078 119.371C126.451 118.096 127.417 116.184 127.976 113.635C128.586 111.086 129.171 107.518 129.73 102.929C129.781 102.063 130.086 101.349 130.646 100.788C131.256 100.176 132.018 99.8706 132.934 99.8706C133.798 99.8706 134.51 100.151 135.069 100.712C135.679 101.273 136.035 101.986 136.137 102.853C136.747 107.543 137.332 111.214 137.891 113.865C138.501 116.516 139.467 118.504 140.789 119.829C142.111 121.155 144.12 122.149 146.814 122.812C149.509 123.424 153.246 124.061 158.026 124.724C158.89 124.876 159.602 125.233 160.161 125.794C160.72 126.355 161 127.069 161 127.935C161 128.751 160.72 129.465 160.161 130.076C159.653 130.637 158.966 130.994 158.102 131.147C153.221 132.065 149.433 132.88 146.738 133.594C144.043 134.359 142.035 135.378 140.713 136.653C139.442 137.927 138.501 139.839 137.891 142.388C137.332 144.937 136.747 148.506 136.137 153.094C136.035 153.961 135.679 154.649 135.069 155.159C134.459 155.72 133.747 156 132.934 156Z" fill="#0A8DB3"/>
</svg>
